# xmcd
#
# Track frame offsets: 
#        150
#        8300
#        18775
#        30025
#        43425
#        55100
#        65225
#        74600
#        84700
#        96775
#        105525
#        116550
#        124375
#        137200
#        151725
#        160050
#        171475
#        183725
#
# Disc length: 2592 seconds
#
# Revision: 0
# Processed by: cddbd v1.5.2PL0 Copyright (c) Steve Scherf et al.
# Submitted via: ExactAudioCopy v0.99pb4
#
DISCID=f10a1e12
DTITLE=Various Artist - 18 Country and Western Hits (The Drifters Caravan, Jerr
DTITLE=y Lee Lewis,  Johnny Cash and The Tennessee Two)
DYEAR=1991
DGENRE=Country
TTITLE0=The Drifters Caravan - Cotton fields
TTITLE1=The Drifters Caravan - Please release me
TTITLE2=The Drifters Caravan - Truck driving man
TTITLE3=The Drifters Caravan - Send me the pillow that you dream on
TTITLE4=The Drifters Caravan - Sixteen tons
TTITLE5=The Drifters Caravan - Miller's cave
TTITLE6=Jerry Lee Lewis - One minute past eternity
TTITLE7=Jerry Lee Lewis - I can't trust me in your arms anymore
TTITLE8=Jerry Lee Lewis - How's my extreating you
TTITLE9=Jerry Lee Lewis - Invitation to your party
TTITLE10=The Drifters Caravan - Tennessee waltz
TTITLE11=The Drifters Caravan - Country rag
TTITLE12=The Drifters Caravan - Red River Valley
TTITLE13=The Drifters Caravan - Wabash cannonball
TTITLE14=Johnny Cash and The Tennessee Two - Wreck of the old 97
TTITLE15=Johnny Cash and The Tennessee Two - Big river
TTITLE16=Johnny Cash and The Tennessee Two - I walk the line
TTITLE17=Johnny Cash and The Tennessee Two - I heard that lonesome whist
TTITLE17=le
EXTD=
EXTT0=
EXTT1=
EXTT2=
EXTT3=
EXTT4=
EXTT5=
EXTT6=
EXTT7=
EXTT8=
EXTT9=
EXTT10=
EXTT11=
EXTT12=
EXTT13=
EXTT14=
EXTT15=
EXTT16=
EXTT17=
PLAYORDER=
